<?xml version="1.0" encoding="UTF-8" standalone="no"?>
<svg
   viewBox="0 0 200 34"
   role="img"
   aria-label="SpanishDict logo"
   version="1.1"
   id="svg51"
   sodipodi:docname="spanishdict.svg"
   inkscape:version="1.1 (c4e8f9ed74, 2021-05-24)"
   xmlns:inkscape="http://www.inkscape.org/namespaces/inkscape"
   xmlns:sodipodi="http://sodipodi.sourceforge.net/DTD/sodipodi-0.dtd"
   xmlns="http://www.w3.org/2000/svg"
   xmlns:svg="http://www.w3.org/2000/svg">
  <defs
     id="defs55" />
  <sodipodi:namedview
     id="namedview53"
     pagecolor="#ffffff"
     bordercolor="#666666"
     borderopacity="1.0"
     inkscape:pageshadow="2"
     inkscape:pageopacity="0.0"
     inkscape:pagecheckerboard="0"
     showgrid="false"
     inkscape:zoom="8.41"
     inkscape:cx="100"
     inkscape:cy="17.003567"
     inkscape:window-width="1900"
     inkscape:window-height="1025"
     inkscape:window-x="8"
     inkscape:window-y="43"
     inkscape:window-maximized="1"
     inkscape:current-layer="svg51" />
  <path
     d="M185 11.6v1.2h3V21c0 1.9.6 3.3 1.7 4.4 1.1 1 2.7 1.5 4.8 1.5l2.2-.1a16.7 16.7 0 0 0 1.5-.5 4 4 0 0 0 1.1-.4l.7-.4-1.8-4.9-.4.4c-.3.2-.7.2-1.1.2-1.2 0-1.7-.5-1.7-1.7v-6.8h3.7V8H195V3h-7v5h-3v1.5a4 4 0 0 0-1.8-1.3c-.6-.3-1.3-.6-2.2-.8a11.8 11.8 0 0 0-2.8-.4 11 11 0 0 0-4 .7 11 11 0 0 0-3.2 2 10.2 10.2 0 0 0-2.2 3.2 10 10 0 0 0-.8 4.1c0 1.5.3 3 .8 4.1a8.3 8.3 0 0 0 2.2 3.2c.8.8 1.9 1.5 3.2 2a11 11 0 0 0 6.8.3 10.4 10.4 0 0 0 4-2l1-1-4.4-4a3.3 3.3 0 0 1-5.5.8c-.8-.8-1.1-1.9-1.1-3.3 0-1.5.3-2.5 1-3.3a3.2 3.2 0 0 1 2.5-1.2 4 4 0 0 1 2 .6c.5.4 1 .9 1.1 1.4l3.4-3zM22.3 21.9a7.9 7.9 0 0 1-2.3 2.7 11 11 0 0 1-3.7 1.8 19 19 0 0 1-5 .6 19.2 19.2 0 0 1-7.5-1.5 10.2 10.2 0 0 1-2.2-1.4A17.3 17.3 0 0 1 0 22.8l4-5 1 1c.5.5 1 .8 1.6 1.2l2 1a6.3 6.3 0 0 0 2.3.4c1 0 2-.1 2.6-.5.7-.3 1-.7 1-1.3 0-.7-.3-1.2-.9-1.6a10 10 0 0 0-3.3-1c-2-.3-3.6-.7-4.9-1.3a13 13 0 0 1-3-2.1A6.2 6.2 0 0 1 .8 11a9.6 9.6 0 0 1-.4-2.8c0-1 .3-1.9.7-3a7.7 7.7 0 0 1 2.1-2.6c1-.8 2-1.4 3.4-2C8 .4 9.6 0 11.3 0c1.5 0 2.8.1 4 .3a12 12 0 0 1 5.3 2.2L22 3.9l-4 4.4-1.1-1a29.2 29.2 0 0 0-1.5-.8l-1.7-.6a6.5 6.5 0 0 0-1.6-.2 6 6 0 0 0-2.4.4c-.6.3-.9.8-.9 1.6 0 .5.3 1 .9 1.3.6.3 1.5.5 2.6.7l4.3 1c1.2.5 2.4 1 3.3 1.7a7 7 0 0 1 2.2 2.5 8 8 0 0 1 .8 3.6 8.4 8.4 0 0 1-.7 3.4zM167 17h-6l-1-16h8l-1 16zm.7 7.6A4.1 4.1 0 0 1 164 27a3.8 3.8 0 0 1-1.5-.3 4 4 0 0 1-2.2-2.1 4.2 4.2 0 0 1-.3-1.6c0-.6.1-1.1.3-1.6A4.1 4.1 0 0 1 164 19l1.5.3a5 5 0 0 1 1.3.9c.3.3.7.7.9 1.2.2.5.3 1 .3 1.6a4.2 4.2 0 0 1-.3 1.6zM159 14c0 2-.3 4-1 5.5a11.7 11.7 0 0 1-7.3 6.7 17 17 0 0 1-5.4.8H134V1h11.3c2 0 3.8.3 5.4.8a11.8 11.8 0 0 1 7.3 6.7c.7 1.6 1 3.4 1 5.5zm-7.4-3c-.3-.8-.6-1.5-1.2-2.1a5 5 0 0 0-2-1.4 7 7 0 0 0-2.7-.4L142 7v13h3.8a7 7 0 0 0 2.6-.5 5.7 5.7 0 0 0 2-1.5 6.2 6.2 0 0 0 1.2-2 7 7 0 0 0 .4-2.4c0-1-.2-1.9-.4-2.6zm-26.4 16l-.1-2.3v-8.5c0-1-.2-1.7-.7-2-.4-.5-1-.7-1.8-.7s-1.4.1-1.8.5c-.5.3-.8.6-1 1v12H113V1h6.7v9.2c.5-.6 1.3-1.2 2.3-1.7a8 8 0 0 1 4-.9c1 0 1.9.2 2.7.5a4 4 0 0 1 1.8 1.3 4 4 0 0 1 1.1 1.9c.3.7.3 1.5.3 2.3v8.5l.1 4.9h-6.8zm-13.8-4a6 6 0 0 1-1.7 2.1 7.9 7.9 0 0 1-2.8 1.4 14.6 14.6 0 0 1-9.3-.6 27.7 27.7 0 0 1-2-1c-.7-.5-1.2-.8-1.6-1.3l3-4.3 1.1 1 1.4.9a6.9 6.9 0 0 0 3 .8c.8 0 1.4 0 1.8-.3.3-.2.5-.4.5-.9 0-.3-.2-.6-.7-.8a8 8 0 0 0-2.1-.5c-1 0-2-.2-3-.5-.8-.2-1.5-.6-2.2-1.2a5.3 5.3 0 0 1-1.6-2 7 7 0 0 1-.5-2.8c0-.8.2-1.5.5-2.2.4-.7.9-1.4 1.6-2a9.8 9.8 0 0 1 6.1-1.8c2 0 3.6.3 4.9.8 1.3.5 2.3 1.1 3 1.8l-2.5 4c0-.3-.4-.5-.6-.7l-1.1-.7a4.3 4.3 0 0 0-1.4-.4l-1.4-.1a6 6 0 0 0-1.7.2c-.5.1-.7.4-.7.8 0 .5.2.9.7 1l2.3.5c2.7.3 4.7 1 5.8 2a5.8 5.8 0 0 1 1.2 6.9zM86 33l1-16h6l1 16h-8zm0-21c0-.6.1-1.1.3-1.6A4.1 4.1 0 0 1 90 8l1.5.3a4 4 0 0 1 2.2 2.1c.2.5.3 1 .3 1.6a4.2 4.2 0 0 1-.3 1.6A4.1 4.1 0 0 1 90 16a3.8 3.8 0 0 1-1.5-.3 5 5 0 0 1-1.3-.9c-.3-.3-.7-.7-.9-1.2A4.2 4.2 0 0 1 86 12zm-7.8 14l-.1-2.2v-8.4c0-1-.2-1.6-.7-2-.4-.5-1-.7-1.8-.7s-1.4.2-1.8.5c-.5.4-.8.6-1 1v11.7H66V7.6h6.7v2c.5-.7 1.3-1.2 2.3-1.8 1-.5 2.4-.8 4-.8 1 0 1.9.1 2.7.5a4.7 4.7 0 0 1 3 3.1c.2.7.2 1.4.2 2.3v8.3L85 26h-6.8zm-20-18.6a6.8 6.8 0 0 1 3 1.3 8 8 0 0 1 2 2.4c.5 1 .8 2.3.8 3.9v11.5h-6.6v-1.8c-.2.4-.5.7-.9 1l-1.3.7-1.5.5-1.4.1c-.8 0-1.7-.1-2.5-.4a7.2 7.2 0 0 1-2.4-1 5.5 5.5 0 0 1-1.7-2c-.5-.8-.7-1.8-.7-2.9 0-1.3.2-2.3.7-3.1.4-.8 1-1.5 1.7-2a7 7 0 0 1 2.4-.9 10.3 10.3 0 0 1 2.5-.3c.4 0 .9 0 1.4.2.5 0 1 .2 1.5.4l1.3.6.9.9v-1.8c0-.8-.3-1.5-1-2.1-.7-.6-1.5-.9-2.6-.9-1 0-2 .2-3 .6a6.3 6.3 0 0 0-2.5 1.6L46 10.1a8 8 0 0 1 2.1-1.5c.8-.5 1.7-.8 2.5-1l2.3-.5 2-.1c1.2 0 2.3.2 3.3.4zm-1.2 12c-.2-.5-.7-.8-1.3-1-.6-.3-1.1-.4-1.6-.4l-1 .1a3 3 0 0 0-1.8 1.2 2 2 0 0 0-.3 1.2c0 .5.1.9.3 1.2l.8.7 1 .5 1 .1c.5 0 1 0 1.6-.3.6-.2 1-.5 1.3-.9v-2.5zm-13.6 2c-.4 1.2-1 2.2-1.6 3-.8.9-1.6 1.5-2.6 2-1 .4-2 .6-3.2.6a7.7 7.7 0 0 1-3-.6 5 5 0 0 1-2.2-2V34H24V7.6h6.8v2c.6-1 1.3-1.6 2.2-2 .9-.5 1.9-.6 3-.6s2.2.2 3.1.6a7.5 7.5 0 0 1 2.6 2 9 9 0 0 1 1.7 3c.4 1.3.6 2.8.6 4.3a12 12 0 0 1-.6 4.4zm-7.3-7.2a3 3 0 0 0-2.3-1.2c-.4 0-1 0-1.5.2a2.4 2.4 0 0 0-1.3.9v6.8c.3.5.7.7 1.2.9a5.8 5.8 0 0 0 1.5.2c1 0 1.6-.4 2.3-1.2a5 5 0 0 0 1-3.3c.1-1.5-.3-2.6-1-3.3z"
     fill="#FFFFFF"
     fill-rule="evenodd"
     id="path49" />
</svg>
